<?xml version="1.0" encoding="UTF-8"?>
<!DOCTYPE svg PUBLIC "-//W3C//DTD SVG 1.1//EN" "http://www.w3.org/Graphics/SVG/1.1/DTD/svg11.dtd">
<!-- Creator: CorelDRAW X7 -->
<svg xmlns="http://www.w3.org/2000/svg" xml:space="preserve" width="3881px" height="929px" version="1.1" shape-rendering="geometricPrecision" text-rendering="geometricPrecision" image-rendering="optimizeQuality" fill-rule="evenodd" clip-rule="evenodd"
viewBox="0 0 4173 999"
 xmlns:xlink="http://www.w3.org/1999/xlink">
 <g id="Camada_x0020_1">
  <metadata id="CorelCorpID_0Corel-Layer"/>
  <g id="_838079488">
   <path fill="#008CA7" fill-rule="nonzero" d="M96 0c180,196 276,293 353,302 72,9 119,-60 189,-175 -103,57 -148,93 -206,83 -63,-10 -137,-72 -336,-210zm378 139c7,31 -14,51 -47,45 -35,-6 -68,-38 -73,-69 -6,-32 18,-50 51,-42 32,8 63,37 69,66z"/>
   <path fill="#F7941D" fill-rule="nonzero" d="M706 194c-92,93 -145,155 -128,232 19,82 114,166 293,314 -134,-177 -194,-244 -211,-309 -16,-62 10,-115 46,-237zm44 305c-27,-1 -58,-31 -67,-67 -10,-34 5,-60 32,-57 26,3 54,31 64,63 10,34 -2,61 -29,61z"/>
   <path fill="#FFDE15" fill-rule="nonzero" d="M839 842c-174,-195 -267,-293 -344,-292 -84,2 -162,123 -354,449 236,-233 304,-320 376,-326 67,-6 144,56 322,169zm-375 -25c-8,-54 20,-101 60,-105 39,-5 77,31 86,81 11,52 -12,102 -52,111 -43,9 -86,-30 -94,-87z"/>
   <path fill="#A8CF44" fill-rule="nonzero" d="M0 877c265,-265 363,-371 350,-463 -12,-86 -121,-180 -350,-362 150,200 225,280 232,356 7,82 -61,172 -232,469zm99 -557c50,4 92,42 95,87 4,46 -35,85 -88,85 -57,0 -105,-42 -105,-93 0,-48 45,-83 98,-79z"/>
  </g>
  <path fill="#8494A7" fill-rule="nonzero" d="M1224 411l15 0c32,0 54,-4 64,-11 11,-7 16,-19 16,-37 0,-19 -5,-32 -17,-40 -11,-8 -32,-11 -63,-11l-15 0 0 99zm-3 47l0 161 -55 0 0 -357 88 0c26,0 45,1 57,4 13,3 23,7 33,14 11,8 20,19 26,33 6,14 9,30 9,47 0,17 -3,32 -9,47 -6,14 -15,25 -26,33 -10,7 -20,12 -33,14 -12,3 -31,4 -57,4l-12 0 -21 0z"/>
  <path id="1" fill="#8494A7" fill-rule="nonzero" d="M1723 442c0,-2 -2,-10 -3,-22 -1,-11 -2,-20 -3,-26 -2,8 -4,16 -7,24 -2,8 -6,16 -10,25l-93 190 -94 -194c-4,-8 -7,-16 -10,-23 -3,-8 -5,-15 -7,-22 0,7 -1,15 -2,23 -1,8 -3,17 -5,26l-38 176 -54 0 85 -372 105 225c2,3 4,9 8,18 3,8 7,18 12,30 3,-10 9,-23 16,-39 2,-4 3,-7 4,-9l103 -225 87 372 -54 0 -40 -177z"/>
  <path id="2" fill="#8494A7" fill-rule="nonzero" d="M2169 441c0,-18 -4,-35 -10,-52 -7,-16 -16,-30 -29,-43 -12,-12 -26,-22 -41,-29 -16,-7 -33,-10 -51,-10 -17,0 -34,3 -50,10 -16,7 -30,16 -42,29 -12,13 -22,27 -28,43 -7,16 -10,34 -10,52 0,18 3,35 10,51 6,16 16,31 28,43 12,13 26,23 42,29 16,7 33,10 50,10 18,0 34,-3 50,-10 16,-6 30,-16 42,-29 13,-12 22,-27 29,-43 6,-16 10,-33 10,-51zm60 0c0,25 -5,49 -14,72 -10,23 -24,43 -42,60 -18,18 -39,32 -62,41 -23,10 -47,14 -73,14 -25,0 -50,-4 -73,-14 -23,-10 -44,-23 -62,-41 -18,-17 -32,-37 -41,-60 -10,-22 -15,-46 -15,-72 0,-26 5,-50 15,-72 9,-23 23,-43 41,-61 18,-18 39,-31 62,-40 23,-10 48,-14 73,-14 26,0 50,4 73,14 23,9 44,22 62,40 18,18 32,38 42,61 9,23 14,47 14,72z"/>
  <path id="3" fill="#8494A7" fill-rule="nonzero" d="M2426 547l46 -21c5,16 13,28 24,36 12,9 27,13 45,13 18,0 31,-5 42,-15 10,-9 15,-22 15,-38 0,-21 -18,-40 -53,-56 -4,-3 -8,-4 -11,-5 -39,-20 -65,-37 -78,-53 -13,-15 -20,-34 -20,-57 0,-29 10,-52 30,-70 19,-18 45,-27 77,-27 27,0 49,5 66,15 18,10 30,25 37,44l-45 23c-7,-11 -15,-19 -24,-25 -8,-5 -18,-7 -29,-7 -16,0 -28,4 -37,12 -10,8 -14,19 -14,32 0,22 20,42 60,60 4,2 6,3 8,4 35,16 59,32 72,48 14,15 20,35 20,58 0,34 -10,60 -32,80 -21,20 -50,30 -86,30 -31,0 -55,-7 -75,-21 -19,-14 -32,-34 -38,-60z"/>
  <path id="4" fill="#8494A7" fill-rule="nonzero" d="M3026 441c0,-18 -3,-35 -10,-52 -6,-16 -16,-30 -28,-43 -12,-12 -26,-22 -42,-29 -16,-7 -32,-10 -50,-10 -17,0 -34,3 -50,10 -16,7 -30,16 -42,29 -13,13 -22,27 -29,43 -6,16 -9,34 -9,52 0,18 3,35 9,51 7,16 16,31 29,43 12,13 26,23 42,29 16,7 32,10 50,10 17,0 34,-3 50,-10 15,-6 29,-16 42,-29 12,-12 22,-27 28,-43 7,-16 10,-33 10,-51zm61 0c0,25 -5,49 -15,72 -9,23 -23,43 -41,60 -18,18 -39,32 -62,41 -23,10 -48,14 -73,14 -26,0 -50,-4 -74,-14 -23,-10 -43,-23 -61,-41 -19,-17 -32,-37 -42,-60 -9,-22 -14,-46 -14,-72 0,-26 5,-50 14,-72 10,-23 23,-43 42,-61 18,-18 39,-31 62,-40 23,-10 47,-14 73,-14 26,0 50,4 73,14 23,9 44,22 62,40 18,18 32,38 41,61 10,23 15,47 15,72z"/>
  <path id="5" fill="#8494A7" fill-rule="nonzero" d="M3440 349c-17,-14 -34,-25 -52,-32 -19,-7 -38,-10 -58,-10 -39,0 -71,12 -95,37 -25,25 -37,58 -37,97 0,39 12,71 36,96 24,25 54,37 90,37 21,0 41,-3 60,-11 19,-7 38,-19 55,-34l0 66c-15,11 -32,19 -51,25 -18,6 -38,8 -59,8 -28,0 -53,-4 -76,-13 -23,-9 -44,-22 -61,-40 -18,-17 -31,-37 -40,-60 -10,-23 -14,-48 -14,-74 0,-26 4,-51 14,-74 9,-23 23,-43 40,-60 18,-18 38,-31 61,-40 23,-9 48,-14 75,-14 21,0 41,3 60,9 19,6 37,16 55,28l-3 59z"/>
  <polygon id="6" fill="#8494A7" fill-rule="nonzero" points="3513,619 3513,262 3571,262 3571,619 "/>
  <path id="7" fill="#8494A7" fill-rule="nonzero" d="M3730 478l99 0 -36 -81c-2,-5 -5,-11 -7,-18 -2,-7 -5,-14 -7,-22 -2,7 -4,15 -6,21 -2,7 -4,13 -7,19l-36 81zm160 141l-40 -92 -142 0 -41 92 -61 0 173 -371 172 371 -61 0z"/>
  <polygon id="8" fill="#8494A7" fill-rule="nonzero" points="3985,619 3985,262 4043,262 4043,567 4173,567 4173,619 "/>
 </g>
</svg>
