<svg xmlns="http://www.w3.org/2000/svg" width="232" height="83" viewBox="0 0 232 83">
    <g fill="none" fill-rule="evenodd">
        <g fill="#FFF">
            <g>
                <g>
                    <path d="M37.626 6.488c1.337 0 2.501.25 3.493.748.991.5 1.816 1.174 2.473 2.025.658.85 1.154 1.832 1.488 2.943.334 1.112.501 2.292.501 3.54 0 1.247-.161 2.427-.485 3.538-.323 1.112-.813 2.082-1.47 2.91-.658.828-1.482 1.48-2.474 1.956-.991.477-2.145.715-3.46.715-.423 0-.896-.045-1.42-.136-.524-.09-1.042-.238-1.554-.443-.513-.204-.998-.482-1.454-.833-.457-.352-.842-.789-1.154-1.31h-.066v9.051h-2.842V6.896h2.842v2.382h.066c.468-.976 1.204-1.685 2.207-2.127 1.002-.442 2.105-.663 3.309-.663zM63.486.192v9.086h.067c.468-.976 1.204-1.685 2.206-2.127 1.003-.442 2.106-.663 3.31-.663 1.337 0 2.5.25 3.493.748.991.5 1.816 1.174 2.473 2.025.657.85 1.153 1.832 1.488 2.943.334 1.112.5 2.292.5 3.54 0 1.247-.16 2.427-.484 3.538-.323 1.112-.813 2.082-1.47 2.91-.658.828-1.482 1.48-2.474 1.956-.992.477-2.145.715-3.46.715-.423 0-.897-.045-1.42-.136-.524-.09-1.042-.238-1.555-.443-.512-.204-.997-.482-1.454-.833-.456-.352-.84-.789-1.153-1.31h-.067v2.348h-2.84V.192h2.84zm51.677 6.296c.98 0 1.883.085 2.708.255.824.17 1.554.465 2.189.884.636.42 1.142.987 1.521 1.702.379.714.601 1.605.668 2.671h-2.84c-.046-.567-.19-1.038-.436-1.412-.244-.374-.556-.675-.935-.902-.379-.227-.797-.391-1.254-.493-.457-.102-.919-.153-1.387-.153-.423 0-.852.034-1.287.102-.434.068-.83.187-1.187.357-.356.17-.646.397-.869.68-.222.284-.334.653-.334 1.107 0 .499.173.913.519 1.242.345.329.785.6 1.32.816.534.216 1.136.397 1.805.545.669.147 1.337.3 2.005.46.714.158 1.41.35 2.09.578.68.226 1.281.527 1.804.901.524.375.948.845 1.27 1.413.324.567.485 1.27.485 2.11 0 1.065-.217 1.95-.651 2.654-.435.703-1.003 1.27-1.705 1.701-.703.431-1.494.732-2.373.902-.88.17-1.756.255-2.624.255-.959 0-1.872-.102-2.742-.306-.869-.204-1.638-.54-2.306-1.004-.668-.465-1.203-1.078-1.604-1.838s-.624-1.684-.668-2.773h2.84c.023.635.167 1.174.435 1.616.268.443.619.794 1.053 1.055.434.261.925.448 1.47.562.546.113 1.11.17 1.689.17.445 0 .913-.034 1.404-.102.49-.068.941-.193 1.354-.375.412-.181.751-.448 1.02-.8.266-.35.4-.799.4-1.343 0-.749-.278-1.316-.836-1.702-.557-.385-1.254-.697-2.088-.936-.836-.238-1.745-.453-2.725-.646s-1.889-.465-2.724-.817c-.836-.351-1.533-.845-2.09-1.48-.557-.635-.835-1.52-.835-2.654 0-.885.195-1.645.585-2.28.39-.635.892-1.152 1.504-1.549.613-.396 1.304-.691 2.073-.884.768-.193 1.532-.29 2.29-.29zm-16.612 0c.78 0 1.554.056 2.323.17.769.113 1.464.346 2.089.697.623.352 1.125.845 1.504 1.48.378.636.568 1.464.568 2.485v9.051c0 .68.039 1.18.117 1.497.078.318.34.477.786.477.245 0 .534-.057.868-.17v2.246c-.49.294-1.17.442-2.039.442-.735 0-1.32-.21-1.754-.63-.435-.42-.652-1.106-.652-2.058-.78.952-1.688 1.639-2.724 2.058-1.037.42-2.157.63-3.36.63-.78 0-1.52-.09-2.223-.272-.702-.182-1.309-.465-1.822-.851-.511-.386-.919-.89-1.22-1.514-.3-.624-.45-1.378-.45-2.263 0-.998.167-1.815.5-2.45.336-.635.775-1.152 1.322-1.549.545-.397 1.17-.697 1.871-.901.702-.205 1.42-.375 2.156-.51.78-.16 1.521-.279 2.223-.358.702-.08 1.32-.193 1.855-.34.535-.148.959-.363 1.27-.647.312-.283.468-.697.468-1.242 0-.635-.116-1.146-.35-1.531-.234-.386-.536-.68-.904-.885-.367-.204-.78-.34-1.236-.408-.456-.068-.908-.102-1.354-.102-1.203 0-2.206.232-3.008.697-.802.465-1.237 1.344-1.304 2.637h-2.84c.044-1.088.266-2.007.667-2.756.401-.749.937-1.355 1.605-1.82.669-.465 1.432-.8 2.29-1.004.858-.204 1.777-.306 2.758-.306zm-79.477 0c.87 0 1.655.096 2.357.289.702.193 1.303.493 1.805.901.501.409.891.936 1.17 1.583.278.646.417 1.423.417 2.33V24.49h-2.84V12.953c0-.545-.045-1.055-.134-1.531-.09-.477-.257-.89-.502-1.242s-.585-.63-1.02-.834c-.434-.204-.997-.306-1.687-.306-1.404 0-2.507.408-3.31 1.225-.802.816-1.203 1.905-1.203 3.266V24.49h-2.841V12.953c0-.567-.05-1.089-.15-1.565-.1-.477-.274-.89-.519-1.242s-.573-.624-.986-.817c-.412-.193-.941-.29-1.587-.29-.825 0-1.532.17-2.123.511-.59.34-1.07.749-1.437 1.225-.368.477-.635.97-.803 1.48-.167.51-.25.936-.25 1.276V24.49H.59V6.896h2.674v2.586h.066c1.293-1.996 3.154-2.994 5.583-2.994 1.07 0 2.039.226 2.908.68.869.454 1.482 1.225 1.838 2.314.58-.953 1.343-1.69 2.29-2.212.947-.522 1.989-.782 3.125-.782zm32.858.408v17.593h-2.841V6.896h2.841zm77.237 0v17.593h-2.842V6.896h2.842zm7.42-6.704V24.49h-2.84V.192h2.84zM89.034 6.483l.326.005V9.55c-1.138 0-2.106.159-2.909.476-.802.318-1.448.783-1.939 1.396-.49.612-.846 1.355-1.07 2.228-.222.874-.333 1.878-.333 3.012v7.827h-2.842V6.896h2.674v3.709h.067c.691-1.43 1.538-2.484 2.54-3.165 1.003-.68 2.273-.998 3.812-.952zM37.225 9.04c-.959 0-1.772.192-2.44.578-.669.386-1.215.89-1.638 1.514-.424.624-.73 1.333-.92 2.127-.189.794-.284 1.6-.284 2.416 0 .862.1 1.696.301 2.501.2.806.518 1.515.953 2.127.434.613.997 1.106 1.688 1.48.69.375 1.526.562 2.507.562.98 0 1.8-.193 2.457-.579.657-.385 1.186-.896 1.587-1.531.401-.635.691-1.361.87-2.178.178-.816.267-1.656.267-2.518 0-.817-.106-1.616-.318-2.399-.211-.783-.535-1.48-.97-2.093-.434-.612-.99-1.1-1.67-1.463-.68-.363-1.477-.544-2.39-.544zm31.442 0c-.958 0-1.771.192-2.44.578-.668.386-1.214.89-1.638 1.514-.423.624-.73 1.333-.919 2.127-.19.794-.284 1.6-.284 2.416 0 .862.1 1.696.3 2.501.201.806.519 1.515.954 2.127.434.613.997 1.106 1.688 1.48.69.375 1.526.562 2.507.562.98 0 1.799-.193 2.456-.579.658-.385 1.187-.896 1.588-1.531.401-.635.69-1.361.87-2.178.177-.816.267-1.656.267-2.518 0-.817-.106-1.616-.318-2.399-.212-.783-.535-1.48-.97-2.093-.434-.612-.991-1.1-1.67-1.463-.68-.363-1.477-.544-2.39-.544zm33.527 6.363c-.356.272-.825.47-1.404.595-.58.125-1.186.227-1.822.307-.635.08-1.276.17-1.921.272-.647.102-1.226.267-1.739.493-.513.227-.93.55-1.254.97-.323.42-.484.993-.484 1.719 0 .476.094.879.284 1.208.189.329.435.595.735.8.3.203.652.35 1.053.442.401.09.825.136 1.27.136.937 0 1.739-.13 2.407-.392.668-.26 1.215-.59 1.638-.986.424-.397.735-.828.936-1.293.2-.465.301-.902.301-1.31v-2.961zM51.932.193V3.73h-2.841V.192h2.841zm77.237 0V3.73h-2.842V.192h2.842z" transform="translate(-92 -94) translate(92 94) translate(94.41 25.808)"/>
                </g>
                <g>
                    <path d="M62.875 35.92c.597 0 1.18-.242 1.602-.663.421-.422.663-1.005.663-1.601 0-.597-.242-1.18-.663-1.602-.422-.421-1.005-.663-1.602-.663-.596 0-1.179.242-1.6.663-.422.422-.664 1.005-.664 1.602 0 .596.242 1.18.663 1.6.422.422 1.005.664 1.601.664zM56.185 31.437c-1.251 0-2.265 1.013-2.265 2.264 0 1.25 1.014 2.265 2.265 2.265 1.25 0 2.264-1.015 2.264-2.265 0-1.25-1.014-2.264-2.264-2.264zM49.494 31.391c-.597 0-1.18.242-1.602.663-.421.422-.663 1.005-.663 1.602 0 .596.242 1.18.663 1.6.422.422 1.005.664 1.602.664.596 0 1.18-.242 1.6-.663.422-.422.664-1.005.664-1.601 0-.597-.242-1.18-.663-1.602-.422-.421-1.005-.663-1.601-.663zM41.725 18.054c-1.251 0-2.265 1.014-2.265 2.265 0 1.25 1.014 2.264 2.265 2.264 1.25 0 2.264-1.013 2.264-2.264s-1.013-2.265-2.264-2.265zM33.955 18.01c-.596 0-1.18.241-1.601.663-.422.421-.663 1.005-.663 1.6 0 .597.241 1.18.663 1.602.421.422 1.005.663 1.601.663.596 0 1.18-.241 1.601-.663.422-.421.663-1.005.663-1.601 0-.596-.241-1.18-.663-1.601-.421-.422-1.005-.663-1.601-.663zM33.911 29.23c1.25 0 2.265-1.014 2.265-2.265 0-1.25-1.014-2.264-2.265-2.264-1.25 0-2.264 1.013-2.264 2.264s1.013 2.265 2.264 2.265zM33.956 31.391c-.596 0-1.18.242-1.601.663-.422.422-.663 1.005-.663 1.602 0 .596.241 1.18.663 1.6.421.422 1.005.664 1.601.664.596 0 1.18-.242 1.601-.663.422-.422.663-1.005.663-1.601 0-.597-.241-1.18-.663-1.602-.421-.421-1.005-.663-1.6-.663zM27.265 31.437c-1.25 0-2.264 1.013-2.264 2.264 0 1.25 1.013 2.265 2.264 2.265 1.25 0 2.264-1.015 2.264-2.265 0-1.25-1.013-2.264-2.264-2.264zM20.664 31.391c-.596 0-1.18.242-1.601.663-.422.422-.663 1.005-.663 1.602 0 .596.241 1.18.663 1.6.421.422 1.005.664 1.6.664.597 0 1.18-.242 1.602-.663.422-.422.663-1.005.663-1.601 0-.597-.241-1.18-.663-1.602-.421-.421-1.005-.663-1.601-.663zM20.619 43.689c1.25 0 2.264-1.014 2.264-2.264 0-1.251-1.013-2.265-2.264-2.265-1.25 0-2.264 1.014-2.264 2.265 0 1.25 1.013 2.264 2.264 2.264zM20.664 46.84c-.596 0-1.18.24-1.601.662-.422.422-.663 1.005-.663 1.602 0 .596.241 1.18.663 1.6.421.422 1.005.664 1.6.664.597 0 1.18-.242 1.602-.663.422-.422.663-1.005.663-1.601 0-.597-.241-1.18-.663-1.602-.421-.421-1.005-.663-1.601-.663zM27.265 46.884c-1.25 0-2.264 1.014-2.264 2.264 0 1.251 1.013 2.265 2.264 2.265 1.25 0 2.264-1.014 2.264-2.265 0-1.25-1.013-2.264-2.264-2.264zM33.956 46.84c-.596 0-1.18.24-1.601.662-.422.422-.663 1.005-.663 1.602 0 .596.241 1.18.663 1.6.421.422 1.005.664 1.601.664.596 0 1.18-.242 1.601-.663.422-.422.663-1.005.663-1.601 0-.597-.241-1.18-.663-1.602-.421-.421-1.005-.663-1.6-.663zM33.911 58.059c1.25 0 2.265-1.014 2.265-2.264 0-1.251-1.014-2.265-2.265-2.265-1.25 0-2.264 1.014-2.264 2.265 0 1.25 1.013 2.264 2.264 2.264zM33.956 60.221c-.596 0-1.18.242-1.601.663-.422.422-.663 1.005-.663 1.602 0 .596.241 1.18.663 1.6.421.422 1.005.664 1.601.664.596 0 1.18-.242 1.601-.663.422-.422.663-1.005.663-1.601 0-.597-.241-1.18-.663-1.602-.421-.421-1.005-.663-1.6-.663zM41.725 60.266c-1.251 0-2.265 1.014-2.265 2.264 0 1.251 1.014 2.265 2.265 2.265 1.25 0 2.264-1.014 2.264-2.265 0-1.25-1.013-2.264-2.264-2.264zM49.494 46.84c-.597 0-1.18.24-1.602.662-.421.422-.663 1.005-.663 1.602 0 .596.242 1.18.663 1.6.422.422 1.005.664 1.602.664.596 0 1.18-.242 1.6-.663.422-.422.664-1.005.664-1.601 0-.597-.242-1.18-.663-1.602-.422-.421-1.005-.663-1.601-.663zM56.185 46.884c-1.251 0-2.265 1.014-2.265 2.264 0 1.251 1.014 2.265 2.265 2.265 1.25 0 2.264-1.014 2.264-2.265 0-1.25-1.014-2.264-2.264-2.264zM62.875 46.84c-.596 0-1.179.24-1.6.662-.422.422-.664 1.005-.664 1.602 0 .596.242 1.18.663 1.6.422.422 1.005.664 1.601.664.597 0 1.18-.242 1.602-.663.421-.422.663-1.005.663-1.601 0-.597-.242-1.18-.663-1.602-.422-.421-1.005-.663-1.602-.663zM62.83 43.689c1.252 0 2.265-1.014 2.265-2.264 0-1.251-1.013-2.265-2.265-2.265-1.25 0-2.264 1.014-2.264 2.265 0 1.25 1.014 2.264 2.264 2.264zM49.449 29.23c1.25 0 2.264-1.014 2.264-2.265 0-1.25-1.014-2.264-2.264-2.264-1.251 0-2.265 1.013-2.265 2.264s1.014 2.265 2.265 2.265zM49.45 18.01c-.595 0-1.179.241-1.6.663-.422.421-.664 1.005-.664 1.6 0 .597.242 1.18.664 1.602.421.422 1.005.663 1.6.663.597 0 1.18-.241 1.602-.663.422-.421.663-1.005.663-1.601 0-.596-.241-1.18-.663-1.601-.422-.422-1.005-.663-1.601-.663zM49.494 60.221c-.597 0-1.18.242-1.602.663-.421.422-.663 1.005-.663 1.602 0 .596.242 1.18.663 1.6.422.422 1.005.664 1.602.664.596 0 1.18-.242 1.6-.663.422-.422.664-1.005.664-1.601 0-.597-.242-1.18-.663-1.602-.422-.421-1.005-.663-1.601-.663zM49.449 58.059c1.25 0 2.264-1.014 2.264-2.264 0-1.251-1.014-2.265-2.264-2.265-1.251 0-2.265 1.014-2.265 2.265 0 1.25 1.014 2.264 2.265 2.264zM56.095 28.706c-.96 0-1.742-.78-1.742-1.741 0-.96.781-1.742 1.742-1.742.96 0 1.742.782 1.742 1.742s-.782 1.741-1.742 1.741zM56.14 21.711c-.379 0-.75-.153-1.017-.42-.267-.269-.42-.639-.42-1.017 0-.378.153-.748.42-1.016.268-.268.638-.421 1.017-.421.378 0 .748.153 1.016.42.267.269.42.639.42 1.017 0 .378-.153.748-.42 1.016-.268.268-.638.421-1.016.421zM56.14 63.923c-.379 0-.75-.154-1.017-.421-.267-.268-.42-.638-.42-1.016 0-.379.153-.75.42-1.017.268-.267.638-.42 1.017-.42.378 0 .748.153 1.016.42.267.268.42.638.42 1.017 0 .378-.153.748-.42 1.016-.268.267-.638.42-1.016.42zM56.095 57.536c-.96 0-1.742-.781-1.742-1.741 0-.96.781-1.742 1.742-1.742.96 0 1.742.781 1.742 1.742 0 .96-.782 1.741-1.742 1.741zM69.484 35.093c-.378 0-.749-.154-1.017-.421-.267-.267-.42-.638-.42-1.016s.153-.749.42-1.016c.268-.268.639-.42 1.017-.42.378 0 .748.152 1.016.42.267.267.42.638.42 1.016s-.153.749-.42 1.016c-.268.267-.638.42-1.016.42zM76.22 34.644c-.26 0-.515-.106-.7-.29-.183-.184-.288-.438-.288-.698 0-.26.105-.515.289-.7.184-.182.438-.288.698-.288.261 0 .515.106.7.29.183.183.288.438.288.698 0 .26-.105.514-.289.698-.184.184-.438.29-.699.29zM76.22 50.092c-.26 0-.515-.106-.7-.29-.183-.184-.288-.438-.288-.698 0-.26.105-.515.289-.7.184-.183.438-.288.698-.288.261 0 .515.105.7.289.183.184.288.438.288.699 0 .26-.105.514-.289.698-.184.184-.438.29-.699.29zM76.174 42.413c-.544 0-.988-.443-.988-.988 0-.545.444-.988.988-.988.545 0 .988.443.988.988 0 .545-.443.988-.988.988zM62.793 28.271c-.72 0-1.307-.585-1.307-1.306 0-.72.586-1.307 1.307-1.307.72 0 1.306.587 1.306 1.307s-.586 1.306-1.306 1.306zM62.838 21.262c-.26 0-.515-.105-.699-.29-.184-.183-.29-.438-.29-.698 0-.26.106-.515.29-.699.184-.184.439-.289.699-.289.26 0 .515.105.698.29.184.183.29.438.29.698 0 .26-.106.515-.29.699-.183.184-.438.289-.698.289zM62.838 63.474c-.26 0-.515-.106-.699-.29-.184-.184-.29-.438-.29-.698 0-.26.106-.515.29-.7.184-.183.439-.288.699-.288.26 0 .515.105.698.289.184.184.29.439.29.699 0 .26-.106.514-.29.698-.183.184-.438.29-.698.29zM62.793 57.101c-.72 0-1.307-.586-1.307-1.306 0-.72.586-1.307 1.307-1.307.72 0 1.306.586 1.306 1.307 0 .72-.586 1.306-1.306 1.306zM82.955 34.195c-.141 0-.28-.057-.38-.158-.1-.1-.158-.24-.158-.381 0-.142.057-.28.157-.382.1-.1.24-.157.381-.157.143 0 .281.057.382.158.1.1.157.239.157.381 0 .142-.057.28-.157.38-.1.102-.24.16-.382.16zM82.955 49.642c-.141 0-.28-.057-.38-.157-.1-.1-.158-.24-.158-.381 0-.142.057-.281.157-.382.1-.1.24-.157.381-.157.143 0 .281.057.382.158.1.1.157.239.157.38 0 .143-.057.281-.157.382-.1.1-.24.157-.382.157zM82.91 41.963c-.296 0-.538-.241-.538-.538 0-.298.242-.54.538-.54.298 0 .54.242.54.54 0 .297-.242.538-.54.538zM69.529 27.504c-.298 0-.54-.242-.54-.54 0-.296.242-.538.54-.538.297 0 .538.242.538.539 0 .297-.241.539-.538.539zM69.574 20.813c-.143 0-.281-.058-.382-.158-.1-.1-.158-.239-.158-.381 0-.142.058-.281.159-.381.1-.1.238-.158.38-.158.142 0 .281.058.381.158.101.1.158.239.158.38 0 .143-.057.281-.158.382-.1.1-.239.158-.38.158zM69.574 63.024c-.143 0-.281-.057-.382-.157-.1-.1-.158-.24-.158-.381 0-.142.058-.281.159-.382.1-.1.238-.157.38-.157.142 0 .281.057.381.157.101.1.158.24.158.382 0 .141-.057.28-.158.38-.1.101-.239.158-.38.158zM69.529 56.334c-.298 0-.54-.242-.54-.54 0-.297.242-.538.54-.538.297 0 .538.241.538.539 0 .297-.241.539-.538.539zM69.484 50.54c-.378 0-.749-.153-1.017-.42-.267-.268-.42-.638-.42-1.016 0-.379.153-.75.42-1.017.268-.267.639-.42 1.017-.42.378 0 .748.153 1.016.42.267.268.42.638.42 1.017 0 .378-.153.748-.42 1.016-.268.267-.638.42-1.016.42zM69.44 42.862c-.794 0-1.438-.645-1.438-1.437 0-.793.644-1.437 1.437-1.437.792 0 1.437.644 1.437 1.437 0 .792-.645 1.437-1.437 1.437zM14.01 35.093c.379 0 .75-.154 1.017-.421.267-.267.42-.638.42-1.016s-.153-.749-.42-1.016c-.268-.268-.638-.42-1.016-.42-.379 0-.749.152-1.017.42-.267.267-.42.638-.42 1.016s.153.749.42 1.016c.268.267.638.42 1.017.42zM14.01 50.54c.379 0 .75-.153 1.017-.42.267-.268.42-.638.42-1.016 0-.379-.153-.75-.42-1.017-.268-.267-.638-.42-1.016-.42-.379 0-.749.153-1.017.42-.267.268-.42.638-.42 1.017 0 .378.153.748.42 1.016.268.267.638.42 1.017.42zM14.056 42.862c.792 0 1.437-.645 1.437-1.437 0-.793-.645-1.437-1.437-1.437-.793 0-1.437.644-1.437 1.437 0 .792.644 1.437 1.437 1.437zM27.438 28.706c.96 0 1.741-.78 1.741-1.741 0-.96-.781-1.742-1.741-1.742-.96 0-1.742.782-1.742 1.742s.781 1.741 1.742 1.741zM27.393 21.711c.378 0 .748-.153 1.016-.42.267-.269.42-.639.42-1.017 0-.378-.153-.748-.42-1.016-.268-.268-.638-.421-1.016-.421-.379 0-.749.153-1.017.42-.267.269-.42.639-.42 1.017 0 .378.153.748.42 1.016.268.268.638.421 1.017.421zM33.955 14.915c.378 0 .749-.153 1.016-.42.267-.268.42-.638.42-1.017 0-.378-.153-.748-.42-1.016-.267-.267-.638-.42-1.016-.42-.379 0-.749.153-1.016.42-.268.268-.421.638-.421 1.016 0 .379.153.75.42 1.016.268.268.639.421 1.017.421zM33.955 70.6c.378 0 .749-.153 1.016-.42.267-.268.42-.639.42-1.017 0-.378-.153-.749-.42-1.016-.267-.268-.638-.42-1.016-.42-.379 0-.749.152-1.016.42-.268.267-.421.638-.421 1.016s.153.749.42 1.016c.268.268.639.421 1.017.421zM41.725 14.915c.378 0 .749-.153 1.016-.42.267-.268.42-.638.42-1.017 0-.378-.153-.748-.42-1.016-.267-.267-.638-.42-1.016-.42-.379 0-.749.153-1.016.42-.268.268-.421.638-.421 1.016 0 .379.153.75.42 1.016.268.268.638.421 1.017.421zM41.725 70.6c.378 0 .749-.153 1.016-.42.267-.268.42-.639.42-1.017 0-.378-.153-.749-.42-1.016-.267-.268-.638-.42-1.016-.42-.379 0-.749.152-1.016.42-.268.267-.421.638-.421 1.016s.153.749.42 1.016c.268.268.638.421 1.017.421zM49.45 14.915c.38 0 .75-.153 1.017-.42.267-.268.42-.638.42-1.017 0-.378-.153-.748-.42-1.016-.267-.267-.638-.42-1.016-.42-.379 0-.749.153-1.016.42-.268.268-.421.638-.421 1.016 0 .379.153.75.42 1.016.268.268.638.421 1.017.421zM49.45 70.6c.38 0 .75-.153 1.017-.42.267-.268.42-.639.42-1.017 0-.378-.153-.749-.42-1.016-.267-.268-.638-.42-1.016-.42-.379 0-.749.152-1.016.42-.268.267-.421.638-.421 1.016s.153.749.42 1.016c.268.268.638.421 1.017.421zM27.393 63.923c.378 0 .748-.154 1.016-.421.267-.268.42-.638.42-1.016 0-.379-.153-.75-.42-1.017-.268-.267-.638-.42-1.016-.42-.379 0-.749.153-1.017.42-.267.268-.42.638-.42 1.017 0 .378.153.748.42 1.016.268.267.638.42 1.017.42zM27.438 57.536c.96 0 1.741-.781 1.741-1.741 0-.96-.781-1.742-1.741-1.742-.96 0-1.742.781-1.742 1.742 0 .96.781 1.741 1.742 1.741zM7.275 34.644c.26 0 .515-.106.699-.29.183-.184.289-.438.289-.698 0-.26-.106-.515-.29-.7-.183-.182-.438-.288-.698-.288-.26 0-.515.106-.699.29-.184.183-.29.438-.29.698 0 .26.106.514.29.698.184.184.439.29.699.29zM7.275 50.092c.26 0 .515-.106.699-.29.183-.184.289-.438.289-.698 0-.26-.106-.515-.29-.7-.183-.183-.438-.288-.698-.288-.26 0-.515.105-.699.289-.184.184-.29.438-.29.699 0 .26.106.514.29.698.184.184.439.29.699.29zM7.32 42.413c.544 0 .988-.443.988-.988 0-.545-.444-.988-.988-.988-.545 0-.988.443-.988.988 0 .545.443.988.988.988zM20.702 28.271c.72 0 1.306-.585 1.306-1.306 0-.72-.586-1.307-1.306-1.307-.72 0-1.307.587-1.307 1.307s.586 1.306 1.307 1.306zM20.657 21.262c.26 0 .515-.105.699-.29.183-.183.289-.438.289-.698 0-.26-.106-.515-.29-.699-.183-.184-.438-.289-.698-.289-.26 0-.515.105-.699.29-.184.183-.29.438-.29.698 0 .26.106.515.29.699.184.184.439.289.699.289zM48.448 7.274c0 .26.106.515.29.699.183.184.438.29.698.29.26 0 .515-.106.699-.29.184-.184.289-.439.289-.699 0-.26-.105-.515-.29-.698-.183-.184-.438-.29-.698-.29-.26 0-.515.106-.698.29-.184.183-.29.438-.29.698zM48.448 75.573c0-.26.106-.515.29-.699.183-.184.438-.289.698-.289.26 0 .515.105.699.29.184.183.289.438.289.698 0 .26-.105.515-.29.699-.183.184-.438.289-.698.289-.26 0-.515-.105-.698-.29-.184-.183-.29-.438-.29-.698zM33 7.274c0 .26.106.515.29.699.184.184.438.29.698.29.26 0 .515-.106.7-.29.183-.184.288-.439.288-.699 0-.26-.105-.515-.289-.698-.184-.184-.438-.29-.699-.29-.26 0-.514.106-.698.29-.184.183-.29.438-.29.698zM33 75.573c0-.26.106-.515.29-.699.184-.184.438-.289.698-.289.26 0 .515.105.7.29.183.183.288.438.288.698 0 .26-.105.515-.289.699-.184.184-.438.289-.699.289-.26 0-.514-.105-.698-.29-.184-.183-.29-.438-.29-.698zM40.68 7.32c0 .544.443.987.987.987.545 0 .988-.443.988-.988 0-.545-.443-.988-.988-.988-.544 0-.988.443-.988.988zM40.68 75.528c0-.545.443-.988.987-.988.545 0 .988.443.988.988 0 .545-.443.988-.988.988-.544 0-.988-.443-.988-.988zM48.897.538c0 .143.058.281.158.382.1.1.24.158.381.158.142 0 .281-.058.381-.159.1-.1.158-.238.158-.38 0-.142-.058-.281-.158-.381-.1-.101-.239-.158-.38-.158-.143 0-.282.057-.382.158-.1.1-.158.239-.158.38zM48.897 82.309c0-.142.058-.281.158-.381.1-.1.24-.158.381-.158.142 0 .281.058.381.158.1.1.158.239.158.38 0 .143-.058.282-.158.382-.1.1-.239.158-.38.158-.143 0-.282-.058-.382-.158-.1-.1-.158-.24-.158-.381zM33.45.538c0 .143.057.281.157.382.1.1.24.158.381.158.142 0 .281-.058.382-.159.1-.1.157-.238.157-.38 0-.142-.057-.281-.157-.381-.1-.101-.24-.158-.382-.158-.141 0-.28.057-.38.158-.1.1-.158.239-.158.38zM33.45 82.309c0-.142.057-.281.157-.381.1-.1.24-.158.381-.158.142 0 .281.058.382.158.1.1.157.239.157.38 0 .143-.057.282-.157.382-.1.1-.24.158-.382.158-.141 0-.28-.058-.38-.158-.1-.1-.158-.24-.158-.381zM41.129.583c0 .298.241.54.538.54.298 0 .54-.242.54-.54 0-.297-.242-.538-.54-.538-.297 0-.538.241-.538.538zM41.129 82.264c0-.297.241-.539.538-.539.298 0 .54.242.54.539 0 .297-.242.539-.54.539-.297 0-.538-.242-.538-.54zM20.657 63.474c.26 0 .515-.106.699-.29.183-.184.289-.438.289-.698 0-.26-.106-.515-.29-.7-.183-.183-.438-.288-.698-.288-.26 0-.515.105-.699.289-.184.184-.29.439-.29.699 0 .26.106.514.29.698.184.184.439.29.699.29zM20.702 57.101c.72 0 1.306-.586 1.306-1.306 0-.72-.586-1.307-1.306-1.307-.72 0-1.307.586-1.307 1.307 0 .72.586 1.306 1.307 1.306zM.539 34.195c.142 0 .28-.057.381-.158.1-.1.158-.24.158-.381 0-.142-.058-.28-.158-.382-.1-.1-.24-.157-.381-.157-.142 0-.28.057-.381.158-.1.1-.158.239-.158.381 0 .142.057.28.158.38.1.102.239.16.38.16zM.539 49.642c.142 0 .28-.057.381-.157.1-.1.158-.24.158-.381 0-.142-.058-.281-.158-.382-.1-.1-.24-.157-.381-.157-.142 0-.28.057-.381.158-.1.1-.158.239-.158.38 0 .143.057.281.158.382.1.1.239.157.38.157zM.584 41.963c.297 0 .539-.241.539-.538 0-.298-.242-.54-.54-.54-.296 0-.538.242-.538.54 0 .297.242.538.539.538zM13.966 27.504c.297 0 .539-.242.539-.54 0-.296-.242-.538-.54-.538-.296 0-.538.242-.538.539 0 .297.242.539.539.539zM13.92 20.813c.143 0 .282-.058.382-.158.1-.1.158-.239.158-.381 0-.142-.058-.281-.158-.381-.1-.1-.24-.158-.381-.158-.142 0-.281.058-.381.158-.1.1-.158.239-.158.38 0 .143.057.281.158.382.1.1.239.158.38.158zM13.92 63.024c.143 0 .282-.057.382-.157.1-.1.158-.24.158-.381 0-.142-.058-.281-.158-.382-.1-.1-.24-.157-.381-.157-.142 0-.281.057-.381.157-.1.1-.158.24-.158.382 0 .141.058.28.158.38.1.101.239.158.38.158zM13.966 56.334c.297 0 .539-.242.539-.54 0-.297-.242-.538-.54-.538-.296 0-.538.241-.538.539 0 .297.242.539.539.539z" transform="translate(-92 -94) translate(92 94)"/>
                </g>
            </g>
        </g>
    </g>
</svg>
